%TF.GenerationSoftware,KiCad,Pcbnew,9.0.6*%
%TF.CreationDate,2025-11-23T11:18:46-06:00*%
%TF.ProjectId,pcb,7063622e-6b69-4636-9164-5f7063625858,rev?*%
%TF.SameCoordinates,Original*%
%TF.FileFunction,Copper,L1,Top*%
%TF.FilePolarity,Positive*%
%FSLAX46Y46*%
G04 Gerber Fmt 4.6, Leading zero omitted, Abs format (unit mm)*
G04 Created by KiCad (PCBNEW 9.0.6) date 2025-11-23 11:18:46*
%MOMM*%
%LPD*%
G01*
G04 APERTURE LIST*
G04 Aperture macros list*
%AMRoundRect*
0 Rectangle with rounded corners*
0 $1 Rounding radius*
0 $2 $3 $4 $5 $6 $7 $8 $9 X,Y pos of 4 corners*
0 Add a 4 corners polygon primitive as box body*
4,1,4,$2,$3,$4,$5,$6,$7,$8,$9,$2,$3,0*
0 Add four circle primitives for the rounded corners*
1,1,$1+$1,$2,$3*
1,1,$1+$1,$4,$5*
1,1,$1+$1,$6,$7*
1,1,$1+$1,$8,$9*
0 Add four rect primitives between the rounded corners*
20,1,$1+$1,$2,$3,$4,$5,0*
20,1,$1+$1,$4,$5,$6,$7,0*
20,1,$1+$1,$6,$7,$8,$9,0*
20,1,$1+$1,$8,$9,$2,$3,0*%
G04 Aperture macros list end*
%ADD10C,0.300000*%
%TA.AperFunction,NonConductor*%
%ADD11C,0.300000*%
%TD*%
%TA.AperFunction,ComponentPad*%
%ADD12C,2.000000*%
%TD*%
%TA.AperFunction,ComponentPad*%
%ADD13R,1.800000X1.800000*%
%TD*%
%TA.AperFunction,ComponentPad*%
%ADD14C,1.800000*%
%TD*%
%TA.AperFunction,SMDPad,CuDef*%
%ADD15RoundRect,0.190500X-0.762000X-0.444500X0.762000X-0.444500X0.762000X0.444500X-0.762000X0.444500X0*%
%TD*%
%TA.AperFunction,ComponentPad*%
%ADD16C,2.400000*%
%TD*%
%TA.AperFunction,Conductor*%
%ADD17C,0.200000*%
%TD*%
G04 APERTURE END LIST*
D10*
D11*
X138268796Y-82970996D02*
X137554510Y-82970996D01*
X137554510Y-82970996D02*
X137554510Y-81470996D01*
X138768796Y-82185282D02*
X139268796Y-82185282D01*
X139483082Y-82970996D02*
X138768796Y-82970996D01*
X138768796Y-82970996D02*
X138768796Y-81470996D01*
X138768796Y-81470996D02*
X139483082Y-81470996D01*
X139911654Y-81470996D02*
X140411654Y-82970996D01*
X140411654Y-82970996D02*
X140911654Y-81470996D01*
X141411653Y-82970996D02*
X141411653Y-81470996D01*
X143268796Y-82970996D02*
X143268796Y-81470996D01*
X143268796Y-82185282D02*
X144125939Y-82185282D01*
X144125939Y-82970996D02*
X144125939Y-81470996D01*
X144840225Y-81470996D02*
X144840225Y-82685282D01*
X144840225Y-82685282D02*
X144911654Y-82828139D01*
X144911654Y-82828139D02*
X144983083Y-82899568D01*
X144983083Y-82899568D02*
X145125940Y-82970996D01*
X145125940Y-82970996D02*
X145411654Y-82970996D01*
X145411654Y-82970996D02*
X145554511Y-82899568D01*
X145554511Y-82899568D02*
X145625940Y-82828139D01*
X145625940Y-82828139D02*
X145697368Y-82685282D01*
X145697368Y-82685282D02*
X145697368Y-81470996D01*
X147125940Y-82970996D02*
X146411654Y-82970996D01*
X146411654Y-82970996D02*
X146411654Y-81470996D01*
X148340226Y-82970996D02*
X147625940Y-82970996D01*
X147625940Y-82970996D02*
X147625940Y-81470996D01*
X137554510Y-83885912D02*
X137554510Y-85100198D01*
X137554510Y-85100198D02*
X137625939Y-85243055D01*
X137625939Y-85243055D02*
X137697368Y-85314484D01*
X137697368Y-85314484D02*
X137840225Y-85385912D01*
X137840225Y-85385912D02*
X138125939Y-85385912D01*
X138125939Y-85385912D02*
X138268796Y-85314484D01*
X138268796Y-85314484D02*
X138340225Y-85243055D01*
X138340225Y-85243055D02*
X138411653Y-85100198D01*
X138411653Y-85100198D02*
X138411653Y-83885912D01*
X139125939Y-85385912D02*
X139125939Y-83885912D01*
X139125939Y-83885912D02*
X139983082Y-85385912D01*
X139983082Y-85385912D02*
X139983082Y-83885912D01*
X140697368Y-85385912D02*
X140697368Y-83885912D01*
X141197369Y-83885912D02*
X141697369Y-85385912D01*
X141697369Y-85385912D02*
X142197369Y-83885912D01*
X142697368Y-84600198D02*
X143197368Y-84600198D01*
X143411654Y-85385912D02*
X142697368Y-85385912D01*
X142697368Y-85385912D02*
X142697368Y-83885912D01*
X142697368Y-83885912D02*
X143411654Y-83885912D01*
X144911654Y-85385912D02*
X144411654Y-84671626D01*
X144054511Y-85385912D02*
X144054511Y-83885912D01*
X144054511Y-83885912D02*
X144625940Y-83885912D01*
X144625940Y-83885912D02*
X144768797Y-83957341D01*
X144768797Y-83957341D02*
X144840226Y-84028769D01*
X144840226Y-84028769D02*
X144911654Y-84171626D01*
X144911654Y-84171626D02*
X144911654Y-84385912D01*
X144911654Y-84385912D02*
X144840226Y-84528769D01*
X144840226Y-84528769D02*
X144768797Y-84600198D01*
X144768797Y-84600198D02*
X144625940Y-84671626D01*
X144625940Y-84671626D02*
X144054511Y-84671626D01*
X145483083Y-85314484D02*
X145697369Y-85385912D01*
X145697369Y-85385912D02*
X146054511Y-85385912D01*
X146054511Y-85385912D02*
X146197369Y-85314484D01*
X146197369Y-85314484D02*
X146268797Y-85243055D01*
X146268797Y-85243055D02*
X146340226Y-85100198D01*
X146340226Y-85100198D02*
X146340226Y-84957341D01*
X146340226Y-84957341D02*
X146268797Y-84814484D01*
X146268797Y-84814484D02*
X146197369Y-84743055D01*
X146197369Y-84743055D02*
X146054511Y-84671626D01*
X146054511Y-84671626D02*
X145768797Y-84600198D01*
X145768797Y-84600198D02*
X145625940Y-84528769D01*
X145625940Y-84528769D02*
X145554511Y-84457341D01*
X145554511Y-84457341D02*
X145483083Y-84314484D01*
X145483083Y-84314484D02*
X145483083Y-84171626D01*
X145483083Y-84171626D02*
X145554511Y-84028769D01*
X145554511Y-84028769D02*
X145625940Y-83957341D01*
X145625940Y-83957341D02*
X145768797Y-83885912D01*
X145768797Y-83885912D02*
X146125940Y-83885912D01*
X146125940Y-83885912D02*
X146340226Y-83957341D01*
X146983082Y-85385912D02*
X146983082Y-83885912D01*
X147483083Y-83885912D02*
X148340226Y-83885912D01*
X147911654Y-85385912D02*
X147911654Y-83885912D01*
X149125940Y-84671626D02*
X149125940Y-85385912D01*
X148625940Y-83885912D02*
X149125940Y-84671626D01*
X149125940Y-84671626D02*
X149625940Y-83885912D01*
X151554511Y-83885912D02*
X151840225Y-83885912D01*
X151840225Y-83885912D02*
X151983082Y-83957341D01*
X151983082Y-83957341D02*
X152125939Y-84100198D01*
X152125939Y-84100198D02*
X152197368Y-84385912D01*
X152197368Y-84385912D02*
X152197368Y-84885912D01*
X152197368Y-84885912D02*
X152125939Y-85171626D01*
X152125939Y-85171626D02*
X151983082Y-85314484D01*
X151983082Y-85314484D02*
X151840225Y-85385912D01*
X151840225Y-85385912D02*
X151554511Y-85385912D01*
X151554511Y-85385912D02*
X151411654Y-85314484D01*
X151411654Y-85314484D02*
X151268796Y-85171626D01*
X151268796Y-85171626D02*
X151197368Y-84885912D01*
X151197368Y-84885912D02*
X151197368Y-84385912D01*
X151197368Y-84385912D02*
X151268796Y-84100198D01*
X151268796Y-84100198D02*
X151411654Y-83957341D01*
X151411654Y-83957341D02*
X151554511Y-83885912D01*
X153340225Y-84600198D02*
X152840225Y-84600198D01*
X152840225Y-85385912D02*
X152840225Y-83885912D01*
X152840225Y-83885912D02*
X153554511Y-83885912D01*
X155197368Y-84957341D02*
X155911654Y-84957341D01*
X155054511Y-85385912D02*
X155554511Y-83885912D01*
X155554511Y-83885912D02*
X156054511Y-85385912D01*
X156554510Y-85385912D02*
X156554510Y-83885912D01*
X156554510Y-83885912D02*
X156911653Y-83885912D01*
X156911653Y-83885912D02*
X157125939Y-83957341D01*
X157125939Y-83957341D02*
X157268796Y-84100198D01*
X157268796Y-84100198D02*
X157340225Y-84243055D01*
X157340225Y-84243055D02*
X157411653Y-84528769D01*
X157411653Y-84528769D02*
X157411653Y-84743055D01*
X157411653Y-84743055D02*
X157340225Y-85028769D01*
X157340225Y-85028769D02*
X157268796Y-85171626D01*
X157268796Y-85171626D02*
X157125939Y-85314484D01*
X157125939Y-85314484D02*
X156911653Y-85385912D01*
X156911653Y-85385912D02*
X156554510Y-85385912D01*
X157840225Y-83885912D02*
X158340225Y-85385912D01*
X158340225Y-85385912D02*
X158840225Y-83885912D01*
X159268796Y-84957341D02*
X159983082Y-84957341D01*
X159125939Y-85385912D02*
X159625939Y-83885912D01*
X159625939Y-83885912D02*
X160125939Y-85385912D01*
X160625938Y-85385912D02*
X160625938Y-83885912D01*
X160625938Y-83885912D02*
X161483081Y-85385912D01*
X161483081Y-85385912D02*
X161483081Y-83885912D01*
X163054510Y-85243055D02*
X162983082Y-85314484D01*
X162983082Y-85314484D02*
X162768796Y-85385912D01*
X162768796Y-85385912D02*
X162625939Y-85385912D01*
X162625939Y-85385912D02*
X162411653Y-85314484D01*
X162411653Y-85314484D02*
X162268796Y-85171626D01*
X162268796Y-85171626D02*
X162197367Y-85028769D01*
X162197367Y-85028769D02*
X162125939Y-84743055D01*
X162125939Y-84743055D02*
X162125939Y-84528769D01*
X162125939Y-84528769D02*
X162197367Y-84243055D01*
X162197367Y-84243055D02*
X162268796Y-84100198D01*
X162268796Y-84100198D02*
X162411653Y-83957341D01*
X162411653Y-83957341D02*
X162625939Y-83885912D01*
X162625939Y-83885912D02*
X162768796Y-83885912D01*
X162768796Y-83885912D02*
X162983082Y-83957341D01*
X162983082Y-83957341D02*
X163054510Y-84028769D01*
X163697367Y-85385912D02*
X163697367Y-83885912D01*
X164411653Y-85385912D02*
X164411653Y-83885912D01*
X164411653Y-83885912D02*
X165268796Y-85385912D01*
X165268796Y-85385912D02*
X165268796Y-83885912D01*
X166768797Y-83957341D02*
X166625940Y-83885912D01*
X166625940Y-83885912D02*
X166411654Y-83885912D01*
X166411654Y-83885912D02*
X166197368Y-83957341D01*
X166197368Y-83957341D02*
X166054511Y-84100198D01*
X166054511Y-84100198D02*
X165983082Y-84243055D01*
X165983082Y-84243055D02*
X165911654Y-84528769D01*
X165911654Y-84528769D02*
X165911654Y-84743055D01*
X165911654Y-84743055D02*
X165983082Y-85028769D01*
X165983082Y-85028769D02*
X166054511Y-85171626D01*
X166054511Y-85171626D02*
X166197368Y-85314484D01*
X166197368Y-85314484D02*
X166411654Y-85385912D01*
X166411654Y-85385912D02*
X166554511Y-85385912D01*
X166554511Y-85385912D02*
X166768797Y-85314484D01*
X166768797Y-85314484D02*
X166840225Y-85243055D01*
X166840225Y-85243055D02*
X166840225Y-84743055D01*
X166840225Y-84743055D02*
X166554511Y-84743055D01*
X168411654Y-83885912D02*
X169268797Y-83885912D01*
X168840225Y-85385912D02*
X168840225Y-83885912D01*
X169768796Y-84600198D02*
X170268796Y-84600198D01*
X170483082Y-85385912D02*
X169768796Y-85385912D01*
X169768796Y-85385912D02*
X169768796Y-83885912D01*
X169768796Y-83885912D02*
X170483082Y-83885912D01*
X171983082Y-85243055D02*
X171911654Y-85314484D01*
X171911654Y-85314484D02*
X171697368Y-85385912D01*
X171697368Y-85385912D02*
X171554511Y-85385912D01*
X171554511Y-85385912D02*
X171340225Y-85314484D01*
X171340225Y-85314484D02*
X171197368Y-85171626D01*
X171197368Y-85171626D02*
X171125939Y-85028769D01*
X171125939Y-85028769D02*
X171054511Y-84743055D01*
X171054511Y-84743055D02*
X171054511Y-84528769D01*
X171054511Y-84528769D02*
X171125939Y-84243055D01*
X171125939Y-84243055D02*
X171197368Y-84100198D01*
X171197368Y-84100198D02*
X171340225Y-83957341D01*
X171340225Y-83957341D02*
X171554511Y-83885912D01*
X171554511Y-83885912D02*
X171697368Y-83885912D01*
X171697368Y-83885912D02*
X171911654Y-83957341D01*
X171911654Y-83957341D02*
X171983082Y-84028769D01*
X172625939Y-85385912D02*
X172625939Y-83885912D01*
X172625939Y-84600198D02*
X173483082Y-84600198D01*
X173483082Y-85385912D02*
X173483082Y-83885912D01*
X174197368Y-85385912D02*
X174197368Y-83885912D01*
X174197368Y-83885912D02*
X175054511Y-85385912D01*
X175054511Y-85385912D02*
X175054511Y-83885912D01*
X176054512Y-83885912D02*
X176340226Y-83885912D01*
X176340226Y-83885912D02*
X176483083Y-83957341D01*
X176483083Y-83957341D02*
X176625940Y-84100198D01*
X176625940Y-84100198D02*
X176697369Y-84385912D01*
X176697369Y-84385912D02*
X176697369Y-84885912D01*
X176697369Y-84885912D02*
X176625940Y-85171626D01*
X176625940Y-85171626D02*
X176483083Y-85314484D01*
X176483083Y-85314484D02*
X176340226Y-85385912D01*
X176340226Y-85385912D02*
X176054512Y-85385912D01*
X176054512Y-85385912D02*
X175911655Y-85314484D01*
X175911655Y-85314484D02*
X175768797Y-85171626D01*
X175768797Y-85171626D02*
X175697369Y-84885912D01*
X175697369Y-84885912D02*
X175697369Y-84385912D01*
X175697369Y-84385912D02*
X175768797Y-84100198D01*
X175768797Y-84100198D02*
X175911655Y-83957341D01*
X175911655Y-83957341D02*
X176054512Y-83885912D01*
X178054512Y-85385912D02*
X177340226Y-85385912D01*
X177340226Y-85385912D02*
X177340226Y-83885912D01*
X178840227Y-83885912D02*
X179125941Y-83885912D01*
X179125941Y-83885912D02*
X179268798Y-83957341D01*
X179268798Y-83957341D02*
X179411655Y-84100198D01*
X179411655Y-84100198D02*
X179483084Y-84385912D01*
X179483084Y-84385912D02*
X179483084Y-84885912D01*
X179483084Y-84885912D02*
X179411655Y-85171626D01*
X179411655Y-85171626D02*
X179268798Y-85314484D01*
X179268798Y-85314484D02*
X179125941Y-85385912D01*
X179125941Y-85385912D02*
X178840227Y-85385912D01*
X178840227Y-85385912D02*
X178697370Y-85314484D01*
X178697370Y-85314484D02*
X178554512Y-85171626D01*
X178554512Y-85171626D02*
X178483084Y-84885912D01*
X178483084Y-84885912D02*
X178483084Y-84385912D01*
X178483084Y-84385912D02*
X178554512Y-84100198D01*
X178554512Y-84100198D02*
X178697370Y-83957341D01*
X178697370Y-83957341D02*
X178840227Y-83885912D01*
X180911656Y-83957341D02*
X180768799Y-83885912D01*
X180768799Y-83885912D02*
X180554513Y-83885912D01*
X180554513Y-83885912D02*
X180340227Y-83957341D01*
X180340227Y-83957341D02*
X180197370Y-84100198D01*
X180197370Y-84100198D02*
X180125941Y-84243055D01*
X180125941Y-84243055D02*
X180054513Y-84528769D01*
X180054513Y-84528769D02*
X180054513Y-84743055D01*
X180054513Y-84743055D02*
X180125941Y-85028769D01*
X180125941Y-85028769D02*
X180197370Y-85171626D01*
X180197370Y-85171626D02*
X180340227Y-85314484D01*
X180340227Y-85314484D02*
X180554513Y-85385912D01*
X180554513Y-85385912D02*
X180697370Y-85385912D01*
X180697370Y-85385912D02*
X180911656Y-85314484D01*
X180911656Y-85314484D02*
X180983084Y-85243055D01*
X180983084Y-85243055D02*
X180983084Y-84743055D01*
X180983084Y-84743055D02*
X180697370Y-84743055D01*
X181911656Y-84671626D02*
X181911656Y-85385912D01*
X181411656Y-83885912D02*
X181911656Y-84671626D01*
X181911656Y-84671626D02*
X182411656Y-83885912D01*
X138268796Y-87800828D02*
X137554510Y-87800828D01*
X137554510Y-87800828D02*
X137554510Y-86300828D01*
X138768796Y-87800828D02*
X138768796Y-86300828D01*
X138768796Y-87015114D02*
X139625939Y-87015114D01*
X139625939Y-87800828D02*
X139625939Y-86300828D01*
X140340225Y-86300828D02*
X140340225Y-87515114D01*
X140340225Y-87515114D02*
X140411654Y-87657971D01*
X140411654Y-87657971D02*
X140483083Y-87729400D01*
X140483083Y-87729400D02*
X140625940Y-87800828D01*
X140625940Y-87800828D02*
X140911654Y-87800828D01*
X140911654Y-87800828D02*
X141054511Y-87729400D01*
X141054511Y-87729400D02*
X141125940Y-87657971D01*
X141125940Y-87657971D02*
X141197368Y-87515114D01*
X141197368Y-87515114D02*
X141197368Y-86300828D01*
X142625940Y-87800828D02*
X141911654Y-87800828D01*
X141911654Y-87800828D02*
X141911654Y-86300828D01*
X143840226Y-87800828D02*
X143125940Y-87800828D01*
X143125940Y-87800828D02*
X143125940Y-86300828D01*
X144411655Y-87800828D02*
X144697369Y-87800828D01*
X144697369Y-87800828D02*
X144840226Y-87729400D01*
X144840226Y-87729400D02*
X144911655Y-87657971D01*
X144911655Y-87657971D02*
X145054512Y-87443685D01*
X145054512Y-87443685D02*
X145125941Y-87157971D01*
X145125941Y-87157971D02*
X145125941Y-86586542D01*
X145125941Y-86586542D02*
X145054512Y-86443685D01*
X145054512Y-86443685D02*
X144983084Y-86372257D01*
X144983084Y-86372257D02*
X144840226Y-86300828D01*
X144840226Y-86300828D02*
X144554512Y-86300828D01*
X144554512Y-86300828D02*
X144411655Y-86372257D01*
X144411655Y-86372257D02*
X144340226Y-86443685D01*
X144340226Y-86443685D02*
X144268798Y-86586542D01*
X144268798Y-86586542D02*
X144268798Y-86943685D01*
X144268798Y-86943685D02*
X144340226Y-87086542D01*
X144340226Y-87086542D02*
X144411655Y-87157971D01*
X144411655Y-87157971D02*
X144554512Y-87229400D01*
X144554512Y-87229400D02*
X144840226Y-87229400D01*
X144840226Y-87229400D02*
X144983084Y-87157971D01*
X144983084Y-87157971D02*
X145054512Y-87086542D01*
X145054512Y-87086542D02*
X145125941Y-86943685D01*
X146554512Y-87800828D02*
X145697369Y-87800828D01*
X146125940Y-87800828D02*
X146125940Y-86300828D01*
X146125940Y-86300828D02*
X145983083Y-86515114D01*
X145983083Y-86515114D02*
X145840226Y-86657971D01*
X145840226Y-86657971D02*
X145697369Y-86729400D01*
X147483083Y-86300828D02*
X147625940Y-86300828D01*
X147625940Y-86300828D02*
X147768797Y-86372257D01*
X147768797Y-86372257D02*
X147840226Y-86443685D01*
X147840226Y-86443685D02*
X147911654Y-86586542D01*
X147911654Y-86586542D02*
X147983083Y-86872257D01*
X147983083Y-86872257D02*
X147983083Y-87229400D01*
X147983083Y-87229400D02*
X147911654Y-87515114D01*
X147911654Y-87515114D02*
X147840226Y-87657971D01*
X147840226Y-87657971D02*
X147768797Y-87729400D01*
X147768797Y-87729400D02*
X147625940Y-87800828D01*
X147625940Y-87800828D02*
X147483083Y-87800828D01*
X147483083Y-87800828D02*
X147340226Y-87729400D01*
X147340226Y-87729400D02*
X147268797Y-87657971D01*
X147268797Y-87657971D02*
X147197368Y-87515114D01*
X147197368Y-87515114D02*
X147125940Y-87229400D01*
X147125940Y-87229400D02*
X147125940Y-86872257D01*
X147125940Y-86872257D02*
X147197368Y-86586542D01*
X147197368Y-86586542D02*
X147268797Y-86443685D01*
X147268797Y-86443685D02*
X147340226Y-86372257D01*
X147340226Y-86372257D02*
X147483083Y-86300828D01*
X148483082Y-86300828D02*
X149483082Y-86300828D01*
X149483082Y-86300828D02*
X148840225Y-87800828D01*
X150697368Y-86300828D02*
X150411653Y-86300828D01*
X150411653Y-86300828D02*
X150268796Y-86372257D01*
X150268796Y-86372257D02*
X150197368Y-86443685D01*
X150197368Y-86443685D02*
X150054510Y-86657971D01*
X150054510Y-86657971D02*
X149983082Y-86943685D01*
X149983082Y-86943685D02*
X149983082Y-87515114D01*
X149983082Y-87515114D02*
X150054510Y-87657971D01*
X150054510Y-87657971D02*
X150125939Y-87729400D01*
X150125939Y-87729400D02*
X150268796Y-87800828D01*
X150268796Y-87800828D02*
X150554510Y-87800828D01*
X150554510Y-87800828D02*
X150697368Y-87729400D01*
X150697368Y-87729400D02*
X150768796Y-87657971D01*
X150768796Y-87657971D02*
X150840225Y-87515114D01*
X150840225Y-87515114D02*
X150840225Y-87157971D01*
X150840225Y-87157971D02*
X150768796Y-87015114D01*
X150768796Y-87015114D02*
X150697368Y-86943685D01*
X150697368Y-86943685D02*
X150554510Y-86872257D01*
X150554510Y-86872257D02*
X150268796Y-86872257D01*
X150268796Y-86872257D02*
X150125939Y-86943685D01*
X150125939Y-86943685D02*
X150054510Y-87015114D01*
X150054510Y-87015114D02*
X149983082Y-87157971D01*
X152411653Y-87086542D02*
X152340224Y-87015114D01*
X152340224Y-87015114D02*
X152197367Y-86943685D01*
X152197367Y-86943685D02*
X152054510Y-86943685D01*
X152054510Y-86943685D02*
X151911653Y-87015114D01*
X151911653Y-87015114D02*
X151840224Y-87086542D01*
X151840224Y-87086542D02*
X151768796Y-87229400D01*
X151768796Y-87229400D02*
X151768796Y-87372257D01*
X151768796Y-87372257D02*
X151840224Y-87515114D01*
X151840224Y-87515114D02*
X151911653Y-87586542D01*
X151911653Y-87586542D02*
X152054510Y-87657971D01*
X152054510Y-87657971D02*
X152197367Y-87657971D01*
X152197367Y-87657971D02*
X152340224Y-87586542D01*
X152340224Y-87586542D02*
X152411653Y-87515114D01*
X152411653Y-86943685D02*
X152411653Y-87515114D01*
X152411653Y-87515114D02*
X152483081Y-87586542D01*
X152483081Y-87586542D02*
X152554510Y-87586542D01*
X152554510Y-87586542D02*
X152697367Y-87515114D01*
X152697367Y-87515114D02*
X152768796Y-87372257D01*
X152768796Y-87372257D02*
X152768796Y-87015114D01*
X152768796Y-87015114D02*
X152625939Y-86800828D01*
X152625939Y-86800828D02*
X152411653Y-86657971D01*
X152411653Y-86657971D02*
X152125939Y-86586542D01*
X152125939Y-86586542D02*
X151840224Y-86657971D01*
X151840224Y-86657971D02*
X151625939Y-86800828D01*
X151625939Y-86800828D02*
X151483081Y-87015114D01*
X151483081Y-87015114D02*
X151411653Y-87300828D01*
X151411653Y-87300828D02*
X151483081Y-87586542D01*
X151483081Y-87586542D02*
X151625939Y-87800828D01*
X151625939Y-87800828D02*
X151840224Y-87943685D01*
X151840224Y-87943685D02*
X152125939Y-88015114D01*
X152125939Y-88015114D02*
X152411653Y-87943685D01*
X152411653Y-87943685D02*
X152625939Y-87800828D01*
X154054510Y-86800828D02*
X154054510Y-87800828D01*
X153411652Y-86800828D02*
X153411652Y-87586542D01*
X153411652Y-87586542D02*
X153483081Y-87729400D01*
X153483081Y-87729400D02*
X153625938Y-87800828D01*
X153625938Y-87800828D02*
X153840224Y-87800828D01*
X153840224Y-87800828D02*
X153983081Y-87729400D01*
X153983081Y-87729400D02*
X154054510Y-87657971D01*
X155411653Y-87800828D02*
X155411653Y-87015114D01*
X155411653Y-87015114D02*
X155340224Y-86872257D01*
X155340224Y-86872257D02*
X155197367Y-86800828D01*
X155197367Y-86800828D02*
X154911653Y-86800828D01*
X154911653Y-86800828D02*
X154768795Y-86872257D01*
X155411653Y-87729400D02*
X155268795Y-87800828D01*
X155268795Y-87800828D02*
X154911653Y-87800828D01*
X154911653Y-87800828D02*
X154768795Y-87729400D01*
X154768795Y-87729400D02*
X154697367Y-87586542D01*
X154697367Y-87586542D02*
X154697367Y-87443685D01*
X154697367Y-87443685D02*
X154768795Y-87300828D01*
X154768795Y-87300828D02*
X154911653Y-87229400D01*
X154911653Y-87229400D02*
X155268795Y-87229400D01*
X155268795Y-87229400D02*
X155411653Y-87157971D01*
X155911653Y-86800828D02*
X156483081Y-86800828D01*
X156125938Y-86300828D02*
X156125938Y-87586542D01*
X156125938Y-87586542D02*
X156197367Y-87729400D01*
X156197367Y-87729400D02*
X156340224Y-87800828D01*
X156340224Y-87800828D02*
X156483081Y-87800828D01*
X156983081Y-87657971D02*
X157054510Y-87729400D01*
X157054510Y-87729400D02*
X156983081Y-87800828D01*
X156983081Y-87800828D02*
X156911653Y-87729400D01*
X156911653Y-87729400D02*
X156983081Y-87657971D01*
X156983081Y-87657971D02*
X156983081Y-87800828D01*
X158268796Y-87729400D02*
X158125939Y-87800828D01*
X158125939Y-87800828D02*
X157840225Y-87800828D01*
X157840225Y-87800828D02*
X157697367Y-87729400D01*
X157697367Y-87729400D02*
X157625939Y-87586542D01*
X157625939Y-87586542D02*
X157625939Y-87015114D01*
X157625939Y-87015114D02*
X157697367Y-86872257D01*
X157697367Y-86872257D02*
X157840225Y-86800828D01*
X157840225Y-86800828D02*
X158125939Y-86800828D01*
X158125939Y-86800828D02*
X158268796Y-86872257D01*
X158268796Y-86872257D02*
X158340225Y-87015114D01*
X158340225Y-87015114D02*
X158340225Y-87157971D01*
X158340225Y-87157971D02*
X157625939Y-87300828D01*
X159625939Y-87800828D02*
X159625939Y-86300828D01*
X159625939Y-87729400D02*
X159483081Y-87800828D01*
X159483081Y-87800828D02*
X159197367Y-87800828D01*
X159197367Y-87800828D02*
X159054510Y-87729400D01*
X159054510Y-87729400D02*
X158983081Y-87657971D01*
X158983081Y-87657971D02*
X158911653Y-87515114D01*
X158911653Y-87515114D02*
X158911653Y-87086542D01*
X158911653Y-87086542D02*
X158983081Y-86943685D01*
X158983081Y-86943685D02*
X159054510Y-86872257D01*
X159054510Y-86872257D02*
X159197367Y-86800828D01*
X159197367Y-86800828D02*
X159483081Y-86800828D01*
X159483081Y-86800828D02*
X159625939Y-86872257D01*
X160983082Y-86800828D02*
X160983082Y-87800828D01*
X160340224Y-86800828D02*
X160340224Y-87586542D01*
X160340224Y-87586542D02*
X160411653Y-87729400D01*
X160411653Y-87729400D02*
X160554510Y-87800828D01*
X160554510Y-87800828D02*
X160768796Y-87800828D01*
X160768796Y-87800828D02*
X160911653Y-87729400D01*
X160911653Y-87729400D02*
X160983082Y-87657971D01*
D12*
%TO.P,SW1,1,1*%
%TO.N,Net-(BT1--)*%
X104500000Y-119500000D03*
X111000000Y-119500000D03*
%TO.P,SW1,2,2*%
%TO.N,Net-(R1-Pad2)*%
X104500000Y-124000000D03*
X111000000Y-124000000D03*
%TD*%
D13*
%TO.P,D1,1,K*%
%TO.N,Net-(D1-K)*%
X144500000Y-93500000D03*
D14*
%TO.P,D1,2,A*%
%TO.N,Net-(BT1-+)*%
X141960000Y-93500000D03*
%TD*%
D15*
%TO.P,BT1,1,+*%
%TO.N,Net-(BT1-+)*%
X123800423Y-93500000D03*
%TO.P,BT1,2,-*%
%TO.N,Net-(BT1--)*%
X104500000Y-93500000D03*
%TD*%
D16*
%TO.P,R1,1*%
%TO.N,Net-(D1-K)*%
X144500000Y-116490000D03*
%TO.P,R1,2*%
%TO.N,Net-(R1-Pad2)*%
X144500000Y-124110000D03*
%TD*%
D17*
%TO.N,Net-(BT1--)*%
X104500000Y-119500000D02*
X104500000Y-93500000D01*
%TO.N,Net-(BT1-+)*%
X123800423Y-93500000D02*
X141960000Y-93500000D01*
%TO.N,Net-(D1-K)*%
X144500000Y-93500000D02*
X144500000Y-116490000D01*
%TO.N,Net-(R1-Pad2)*%
X111110000Y-124110000D02*
X111000000Y-124000000D01*
X144500000Y-124110000D02*
X111110000Y-124110000D01*
%TD*%
%TA.AperFunction,NonConductor*%
G36*
X183442539Y-80520185D02*
G01*
X183488294Y-80572989D01*
X183499500Y-80624500D01*
X183499500Y-130375500D01*
X183479815Y-130442539D01*
X183427011Y-130488294D01*
X183375500Y-130499500D01*
X95624500Y-130499500D01*
X95557461Y-130479815D01*
X95511706Y-130427011D01*
X95500500Y-130375500D01*
X95500500Y-123881902D01*
X102999500Y-123881902D01*
X102999500Y-124118097D01*
X103036446Y-124351368D01*
X103109433Y-124575996D01*
X103151110Y-124657790D01*
X103216657Y-124786433D01*
X103355483Y-124977510D01*
X103522490Y-125144517D01*
X103713567Y-125283343D01*
X103812991Y-125334002D01*
X103924003Y-125390566D01*
X103924005Y-125390566D01*
X103924008Y-125390568D01*
X104044412Y-125429689D01*
X104148631Y-125463553D01*
X104381903Y-125500500D01*
X104381908Y-125500500D01*
X104618097Y-125500500D01*
X104851368Y-125463553D01*
X105075992Y-125390568D01*
X105286433Y-125283343D01*
X105477510Y-125144517D01*
X105644517Y-124977510D01*
X105783343Y-124786433D01*
X105890568Y-124575992D01*
X105963553Y-124351368D01*
X106000500Y-124118097D01*
X106000500Y-123881902D01*
X109499500Y-123881902D01*
X109499500Y-124118097D01*
X109536446Y-124351368D01*
X109609433Y-124575996D01*
X109651110Y-124657790D01*
X109716657Y-124786433D01*
X109855483Y-124977510D01*
X110022490Y-125144517D01*
X110213567Y-125283343D01*
X110312991Y-125334002D01*
X110424003Y-125390566D01*
X110424005Y-125390566D01*
X110424008Y-125390568D01*
X110544412Y-125429689D01*
X110648631Y-125463553D01*
X110881903Y-125500500D01*
X110881908Y-125500500D01*
X111118097Y-125500500D01*
X111351368Y-125463553D01*
X111575992Y-125390568D01*
X111786433Y-125283343D01*
X111977510Y-125144517D01*
X112144517Y-124977510D01*
X112283343Y-124786433D01*
X112287534Y-124778206D01*
X112335508Y-124727410D01*
X112398020Y-124710500D01*
X142825273Y-124710500D01*
X142892312Y-124730185D01*
X142938067Y-124782989D01*
X142939834Y-124787048D01*
X142971590Y-124863717D01*
X142971593Y-124863722D01*
X142971595Y-124863726D01*
X143083052Y-125056774D01*
X143083057Y-125056780D01*
X143083058Y-125056782D01*
X143218751Y-125233622D01*
X143218757Y-125233629D01*
X143376370Y-125391242D01*
X143376377Y-125391248D01*
X143502294Y-125487867D01*
X143553226Y-125526948D01*
X143746274Y-125638405D01*
X143952219Y-125723710D01*
X144167537Y-125781404D01*
X144388543Y-125810500D01*
X144388550Y-125810500D01*
X144611450Y-125810500D01*
X144611457Y-125810500D01*
X144832463Y-125781404D01*
X145047781Y-125723710D01*
X145253726Y-125638405D01*
X145446774Y-125526948D01*
X145623624Y-125391247D01*
X145781247Y-125233624D01*
X145916948Y-125056774D01*
X146028405Y-124863726D01*
X146113710Y-124657781D01*
X146171404Y-124442463D01*
X146200500Y-124221457D01*
X146200500Y-123998543D01*
X146171404Y-123777537D01*
X146113710Y-123562219D01*
X146028405Y-123356274D01*
X145916948Y-123163226D01*
X145781247Y-122986376D01*
X145781242Y-122986370D01*
X145623629Y-122828757D01*
X145623622Y-122828751D01*
X145446782Y-122693058D01*
X145446780Y-122693057D01*
X145446774Y-122693052D01*
X145253726Y-122581595D01*
X145253722Y-122581593D01*
X145047790Y-122496293D01*
X145047783Y-122496291D01*
X145047781Y-122496290D01*
X144832463Y-122438596D01*
X144832457Y-122438595D01*
X144832452Y-122438594D01*
X144611466Y-122409501D01*
X144611463Y-122409500D01*
X144611457Y-122409500D01*
X144388543Y-122409500D01*
X144388537Y-122409500D01*
X144388533Y-122409501D01*
X144167547Y-122438594D01*
X144167540Y-122438595D01*
X144167537Y-122438596D01*
X143952219Y-122496290D01*
X143952209Y-122496293D01*
X143746277Y-122581593D01*
X143746273Y-122581595D01*
X143553226Y-122693052D01*
X143553217Y-122693058D01*
X143376377Y-122828751D01*
X143376370Y-122828757D01*
X143218757Y-122986370D01*
X143218751Y-122986377D01*
X143083058Y-123163217D01*
X143083052Y-123163226D01*
X142971595Y-123356273D01*
X142971590Y-123356282D01*
X142939834Y-123432952D01*
X142895994Y-123487356D01*
X142829700Y-123509421D01*
X142825273Y-123509500D01*
X112508437Y-123509500D01*
X112441398Y-123489815D01*
X112395643Y-123437011D01*
X112390757Y-123424464D01*
X112390569Y-123424009D01*
X112283342Y-123213566D01*
X112144517Y-123022490D01*
X111977510Y-122855483D01*
X111786433Y-122716657D01*
X111575996Y-122609433D01*
X111351368Y-122536446D01*
X111118097Y-122499500D01*
X111118092Y-122499500D01*
X110881908Y-122499500D01*
X110881903Y-122499500D01*
X110648631Y-122536446D01*
X110424003Y-122609433D01*
X110213566Y-122716657D01*
X110104550Y-122795862D01*
X110022490Y-122855483D01*
X110022488Y-122855485D01*
X110022487Y-122855485D01*
X109855485Y-123022487D01*
X109855485Y-123022488D01*
X109855483Y-123022490D01*
X109795862Y-123104550D01*
X109716657Y-123213566D01*
X109609433Y-123424003D01*
X109536446Y-123648631D01*
X109499500Y-123881902D01*
X106000500Y-123881902D01*
X105963553Y-123648631D01*
X105890566Y-123424003D01*
X105783342Y-123213566D01*
X105644517Y-123022490D01*
X105477510Y-122855483D01*
X105286433Y-122716657D01*
X105075996Y-122609433D01*
X104851368Y-122536446D01*
X104618097Y-122499500D01*
X104618092Y-122499500D01*
X104381908Y-122499500D01*
X104381903Y-122499500D01*
X104148631Y-122536446D01*
X103924003Y-122609433D01*
X103713566Y-122716657D01*
X103604550Y-122795862D01*
X103522490Y-122855483D01*
X103522488Y-122855485D01*
X103522487Y-122855485D01*
X103355485Y-123022487D01*
X103355485Y-123022488D01*
X103355483Y-123022490D01*
X103295862Y-123104550D01*
X103216657Y-123213566D01*
X103109433Y-123424003D01*
X103036446Y-123648631D01*
X102999500Y-123881902D01*
X95500500Y-123881902D01*
X95500500Y-119381902D01*
X102999500Y-119381902D01*
X102999500Y-119618097D01*
X103036446Y-119851368D01*
X103109433Y-120075996D01*
X103216657Y-120286433D01*
X103355483Y-120477510D01*
X103522490Y-120644517D01*
X103713567Y-120783343D01*
X103812991Y-120834002D01*
X103924003Y-120890566D01*
X103924005Y-120890566D01*
X103924008Y-120890568D01*
X104044412Y-120929689D01*
X104148631Y-120963553D01*
X104381903Y-121000500D01*
X104381908Y-121000500D01*
X104618097Y-121000500D01*
X104851368Y-120963553D01*
X105075992Y-120890568D01*
X105286433Y-120783343D01*
X105477510Y-120644517D01*
X105644517Y-120477510D01*
X105783343Y-120286433D01*
X105890568Y-120075992D01*
X105963553Y-119851368D01*
X106000500Y-119618097D01*
X106000500Y-119381902D01*
X109499500Y-119381902D01*
X109499500Y-119618097D01*
X109536446Y-119851368D01*
X109609433Y-120075996D01*
X109716657Y-120286433D01*
X109855483Y-120477510D01*
X110022490Y-120644517D01*
X110213567Y-120783343D01*
X110312991Y-120834002D01*
X110424003Y-120890566D01*
X110424005Y-120890566D01*
X110424008Y-120890568D01*
X110544412Y-120929689D01*
X110648631Y-120963553D01*
X110881903Y-121000500D01*
X110881908Y-121000500D01*
X111118097Y-121000500D01*
X111351368Y-120963553D01*
X111575992Y-120890568D01*
X111786433Y-120783343D01*
X111977510Y-120644517D01*
X112144517Y-120477510D01*
X112283343Y-120286433D01*
X112390568Y-120075992D01*
X112463553Y-119851368D01*
X112500500Y-119618097D01*
X112500500Y-119381902D01*
X112463553Y-119148631D01*
X112390566Y-118924003D01*
X112283342Y-118713566D01*
X112144517Y-118522490D01*
X111977510Y-118355483D01*
X111786433Y-118216657D01*
X111735097Y-118190500D01*
X111575996Y-118109433D01*
X111351368Y-118036446D01*
X111118097Y-117999500D01*
X111118092Y-117999500D01*
X110881908Y-117999500D01*
X110881903Y-117999500D01*
X110648631Y-118036446D01*
X110424003Y-118109433D01*
X110213566Y-118216657D01*
X110104550Y-118295862D01*
X110022490Y-118355483D01*
X110022488Y-118355485D01*
X110022487Y-118355485D01*
X109855485Y-118522487D01*
X109855485Y-118522488D01*
X109855483Y-118522490D01*
X109795862Y-118604550D01*
X109716657Y-118713566D01*
X109609433Y-118924003D01*
X109536446Y-119148631D01*
X109499500Y-119381902D01*
X106000500Y-119381902D01*
X105963553Y-119148631D01*
X105890566Y-118924003D01*
X105783342Y-118713566D01*
X105644517Y-118522490D01*
X105477510Y-118355483D01*
X105381971Y-118286070D01*
X105286431Y-118216655D01*
X105168204Y-118156415D01*
X105117409Y-118108441D01*
X105100500Y-118045931D01*
X105100500Y-94759499D01*
X105120185Y-94692460D01*
X105172989Y-94646705D01*
X105224500Y-94635499D01*
X105317853Y-94635499D01*
X105387466Y-94629174D01*
X105387469Y-94629173D01*
X105387471Y-94629173D01*
X105547678Y-94579251D01*
X105648881Y-94518072D01*
X105691277Y-94492443D01*
X105691278Y-94492441D01*
X105691283Y-94492439D01*
X105809939Y-94373783D01*
X105896751Y-94230178D01*
X105946673Y-94069971D01*
X105953000Y-94000347D01*
X105952999Y-92999655D01*
X122347423Y-92999655D01*
X122347423Y-94000354D01*
X122353748Y-94069966D01*
X122353751Y-94069977D01*
X122403670Y-94230175D01*
X122403672Y-94230179D01*
X122490479Y-94373777D01*
X122490483Y-94373782D01*
X122609140Y-94492439D01*
X122609145Y-94492443D01*
X122673657Y-94531441D01*
X122752745Y-94579251D01*
X122912952Y-94629173D01*
X122982576Y-94635500D01*
X124618269Y-94635499D01*
X124618276Y-94635499D01*
X124687889Y-94629174D01*
X124687892Y-94629173D01*
X124687894Y-94629173D01*
X124848101Y-94579251D01*
X124949304Y-94518072D01*
X124991700Y-94492443D01*
X124991701Y-94492441D01*
X124991706Y-94492439D01*
X125110362Y-94373783D01*
X125197174Y-94230178D01*
X125210439Y-94187608D01*
X125249176Y-94129462D01*
X125313201Y-94101488D01*
X125328824Y-94100500D01*
X140618164Y-94100500D01*
X140685203Y-94120185D01*
X140728648Y-94168204D01*
X140762185Y-94234023D01*
X140891752Y-94412358D01*
X140891756Y-94412363D01*
X141047636Y-94568243D01*
X141047641Y-94568247D01*
X141167300Y-94655183D01*
X141225978Y-94697815D01*
X141354375Y-94763237D01*
X141422393Y-94797895D01*
X141422396Y-94797896D01*
X141527221Y-94831955D01*
X141632049Y-94866015D01*
X141849778Y-94900500D01*
X141849779Y-94900500D01*
X142070221Y-94900500D01*
X142070222Y-94900500D01*
X142287951Y-94866015D01*
X142497606Y-94797895D01*
X142694022Y-94697815D01*
X142872365Y-94568242D01*
X142922536Y-94518070D01*
X142983857Y-94484586D01*
X143053548Y-94489570D01*
X143109482Y-94531441D01*
X143126398Y-94562419D01*
X143156202Y-94642328D01*
X143156206Y-94642335D01*
X143242452Y-94757544D01*
X143242455Y-94757547D01*
X143357664Y-94843793D01*
X143357671Y-94843797D01*
X143402618Y-94860561D01*
X143492517Y-94894091D01*
X143552127Y-94900500D01*
X143775500Y-94900499D01*
X143842539Y-94920183D01*
X143888294Y-94972987D01*
X143899500Y-95024499D01*
X143899500Y-114815272D01*
X143879815Y-114882311D01*
X143827011Y-114928066D01*
X143822954Y-114929832D01*
X143746274Y-114961594D01*
X143746272Y-114961595D01*
X143553226Y-115073052D01*
X143553217Y-115073058D01*
X143376377Y-115208751D01*
X143376370Y-115208757D01*
X143218757Y-115366370D01*
X143218751Y-115366377D01*
X143083058Y-115543217D01*
X143083052Y-115543226D01*
X142971595Y-115736273D01*
X142971593Y-115736277D01*
X142886293Y-115942209D01*
X142886290Y-115942219D01*
X142828597Y-116157534D01*
X142828594Y-116157547D01*
X142799501Y-116378533D01*
X142799500Y-116378549D01*
X142799500Y-116601450D01*
X142799501Y-116601466D01*
X142828594Y-116822452D01*
X142828595Y-116822457D01*
X142828596Y-116822463D01*
X142828597Y-116822465D01*
X142886290Y-117037780D01*
X142886293Y-117037790D01*
X142971593Y-117243722D01*
X142971595Y-117243726D01*
X143083052Y-117436774D01*
X143083057Y-117436780D01*
X143083058Y-117436782D01*
X143218751Y-117613622D01*
X143218757Y-117613629D01*
X143376370Y-117771242D01*
X143376376Y-117771247D01*
X143553226Y-117906948D01*
X143746274Y-118018405D01*
X143952219Y-118103710D01*
X144167537Y-118161404D01*
X144388543Y-118190500D01*
X144388550Y-118190500D01*
X144611450Y-118190500D01*
X144611457Y-118190500D01*
X144832463Y-118161404D01*
X145047781Y-118103710D01*
X145253726Y-118018405D01*
X145446774Y-117906948D01*
X145623624Y-117771247D01*
X145781247Y-117613624D01*
X145916948Y-117436774D01*
X146028405Y-117243726D01*
X146113710Y-117037781D01*
X146171404Y-116822463D01*
X146200500Y-116601457D01*
X146200500Y-116378543D01*
X146171404Y-116157537D01*
X146113710Y-115942219D01*
X146028405Y-115736274D01*
X145916948Y-115543226D01*
X145781247Y-115366376D01*
X145781242Y-115366370D01*
X145623629Y-115208757D01*
X145623622Y-115208751D01*
X145446782Y-115073058D01*
X145446780Y-115073057D01*
X145446774Y-115073052D01*
X145350250Y-115017323D01*
X145253727Y-114961595D01*
X145253725Y-114961594D01*
X145177046Y-114929832D01*
X145122643Y-114885991D01*
X145100579Y-114819696D01*
X145100500Y-114815272D01*
X145100500Y-95024499D01*
X145120185Y-94957460D01*
X145172989Y-94911705D01*
X145224500Y-94900499D01*
X145447871Y-94900499D01*
X145447872Y-94900499D01*
X145507483Y-94894091D01*
X145642331Y-94843796D01*
X145757546Y-94757546D01*
X145843796Y-94642331D01*
X145894091Y-94507483D01*
X145900500Y-94447873D01*
X145900499Y-92552128D01*
X145894091Y-92492517D01*
X145873601Y-92437581D01*
X145843797Y-92357671D01*
X145843793Y-92357664D01*
X145757547Y-92242455D01*
X145757544Y-92242452D01*
X145642335Y-92156206D01*
X145642328Y-92156202D01*
X145507482Y-92105908D01*
X145507483Y-92105908D01*
X145447883Y-92099501D01*
X145447881Y-92099500D01*
X145447873Y-92099500D01*
X145447864Y-92099500D01*
X143552129Y-92099500D01*
X143552123Y-92099501D01*
X143492516Y-92105908D01*
X143357671Y-92156202D01*
X143357664Y-92156206D01*
X143242455Y-92242452D01*
X143242452Y-92242455D01*
X143156206Y-92357664D01*
X143156203Y-92357669D01*
X143126398Y-92437581D01*
X143084526Y-92493514D01*
X143019062Y-92517931D01*
X142950789Y-92503079D01*
X142922535Y-92481928D01*
X142872363Y-92431756D01*
X142872358Y-92431752D01*
X142694025Y-92302187D01*
X142694024Y-92302186D01*
X142694022Y-92302185D01*
X142576791Y-92242452D01*
X142497606Y-92202104D01*
X142497603Y-92202103D01*
X142287952Y-92133985D01*
X142179086Y-92116742D01*
X142070222Y-92099500D01*
X141849778Y-92099500D01*
X141777201Y-92110995D01*
X141632047Y-92133985D01*
X141422396Y-92202103D01*
X141422393Y-92202104D01*
X141225974Y-92302187D01*
X141047641Y-92431752D01*
X141047636Y-92431756D01*
X140891756Y-92587636D01*
X140891752Y-92587641D01*
X140762185Y-92765976D01*
X140728648Y-92831796D01*
X140680674Y-92882591D01*
X140618164Y-92899500D01*
X125328824Y-92899500D01*
X125261785Y-92879815D01*
X125216030Y-92827011D01*
X125210441Y-92812398D01*
X125197174Y-92769822D01*
X125183266Y-92746815D01*
X125110366Y-92626222D01*
X125110362Y-92626217D01*
X124991705Y-92507560D01*
X124991700Y-92507556D01*
X124848103Y-92420750D01*
X124848102Y-92420749D01*
X124848101Y-92420749D01*
X124687894Y-92370827D01*
X124687892Y-92370826D01*
X124687890Y-92370826D01*
X124639144Y-92366396D01*
X124618270Y-92364500D01*
X124618267Y-92364500D01*
X122982568Y-92364500D01*
X122912956Y-92370825D01*
X122912945Y-92370828D01*
X122752747Y-92420747D01*
X122752743Y-92420749D01*
X122609145Y-92507556D01*
X122609140Y-92507560D01*
X122490483Y-92626217D01*
X122490479Y-92626222D01*
X122403673Y-92769819D01*
X122353749Y-92930032D01*
X122347423Y-92999655D01*
X105952999Y-92999655D01*
X105952999Y-92999654D01*
X105952999Y-92999653D01*
X105952999Y-92999645D01*
X105946674Y-92930033D01*
X105946671Y-92930022D01*
X105896752Y-92769824D01*
X105896750Y-92769820D01*
X105809943Y-92626222D01*
X105809939Y-92626217D01*
X105691282Y-92507560D01*
X105691277Y-92507556D01*
X105547680Y-92420750D01*
X105547679Y-92420749D01*
X105547678Y-92420749D01*
X105387471Y-92370827D01*
X105387469Y-92370826D01*
X105387467Y-92370826D01*
X105338721Y-92366396D01*
X105317847Y-92364500D01*
X105317844Y-92364500D01*
X103682145Y-92364500D01*
X103612533Y-92370825D01*
X103612522Y-92370828D01*
X103452324Y-92420747D01*
X103452320Y-92420749D01*
X103308722Y-92507556D01*
X103308717Y-92507560D01*
X103190060Y-92626217D01*
X103190056Y-92626222D01*
X103103250Y-92769819D01*
X103053326Y-92930032D01*
X103047000Y-92999655D01*
X103047000Y-94000354D01*
X103053325Y-94069966D01*
X103053328Y-94069977D01*
X103103247Y-94230175D01*
X103103249Y-94230179D01*
X103190056Y-94373777D01*
X103190060Y-94373782D01*
X103308717Y-94492439D01*
X103308722Y-94492443D01*
X103373234Y-94531441D01*
X103452322Y-94579251D01*
X103612529Y-94629173D01*
X103682153Y-94635500D01*
X103775500Y-94635499D01*
X103842538Y-94655183D01*
X103888294Y-94707986D01*
X103899500Y-94759499D01*
X103899500Y-118045931D01*
X103879815Y-118112970D01*
X103831796Y-118156415D01*
X103713568Y-118216655D01*
X103579896Y-118313774D01*
X103522490Y-118355483D01*
X103522488Y-118355485D01*
X103522487Y-118355485D01*
X103355485Y-118522487D01*
X103355485Y-118522488D01*
X103355483Y-118522490D01*
X103295862Y-118604550D01*
X103216657Y-118713566D01*
X103109433Y-118924003D01*
X103036446Y-119148631D01*
X102999500Y-119381902D01*
X95500500Y-119381902D01*
X95500500Y-88673317D01*
X136897285Y-88673317D01*
X183069980Y-88673317D01*
X183069980Y-80813771D01*
X136897285Y-80813771D01*
X136897285Y-88673317D01*
X95500500Y-88673317D01*
X95500500Y-80624500D01*
X95520185Y-80557461D01*
X95572989Y-80511706D01*
X95624500Y-80500500D01*
X183375500Y-80500500D01*
X183442539Y-80520185D01*
G37*
%TD.AperFunction*%
M02*
